<?xml version="1.0" encoding="UTF-8"?>
<svg id="Capa_2" data-name="Capa 2" xmlns="http://www.w3.org/2000/svg" viewBox="0 0 160.78 160.78">
  <g id="Capa_1-2" data-name="Capa 1">
    <g>
      <path d="M80.39,160.78C36.06,160.78,0,124.72,0,80.39S36.06,0,80.39,0s80.39,36.06,80.39,80.39-36.06,80.39-80.39,80.39ZM80.39,10C41.58,10,10,41.58,10,80.39s31.58,70.39,70.39,70.39,70.39-31.58,70.39-70.39S119.2,10,80.39,10Z"/>
      <path d="M80.39,130.27c-14.05,0-25.99-5.67-35.48-16.86-1.79-2.11-1.53-5.26.58-7.05,2.11-1.79,5.26-1.53,7.05.58,7.61,8.97,16.72,13.33,27.85,13.33s20.38-4.69,28.2-13.95c1.78-2.11,4.94-2.38,7.05-.59s2.38,4.94.59,7.05c-9.81,11.61-21.87,17.49-35.84,17.49Z"/>
      <circle cx="54.98" cy="70.33" r="10.06"/>
      <path d="M89.27,78.55c-.59,0-1.2-.13-1.77-.41-1.99-.97-2.8-3.39-1.83-5.37.21-.43,5.35-10.63,19.54-10.63s19.33,10.2,19.54,10.63c.97,1.99.14,4.38-1.84,5.35-1.99.97-4.38.14-5.35-1.84-.11-.21-3.3-6.14-12.35-6.14s-12.25,5.93-12.38,6.18c-.69,1.42-2.1,2.23-3.57,2.23Z"/>
    </g>
  </g>
</svg>